<svg preserveAspectRatio="none" overflow="visible" style="display: block;" width="34" height="52" viewBox="0 0 34 52" fill="none" xmlns="http://www.w3.org/2000/svg">
<g id="Egg 01" clip-path="url(#clip0_0_60)">
<path id="Egg Shell" d="M14.28 2C15.98 0 18.02 0 19.72 2C23.46 5 25.84 6.76 27.88 13C31.28 23.4 30.94 35.88 27.2 44.72C23.46 51.48 10.54 51.48 6.8 44.72C3.06 35.88 2.72 23.4 6.12 13C8.16 6.76 10.54 5 14.28 2Z" fill="url(#paint0_radial_0_60)" stroke="#C8954C" stroke-opacity="0.28" stroke-width="0.7"/>
<path id="Egg Lower Shade" opacity="0.16" d="M5.44 32.24C9.52 41.08 20.4 45.24 28.22 34.84C29.58 43.16 25.5 49.92 19.38 51.48C11.22 51.48 6.12 45.24 5.44 32.24Z" fill="#B97528"/>
<path id="Egg Highlight" opacity="0.48" d="M9.52 9.36C10.54 5.72 13.26 4.16 15.3 6.24C13.6 9.88 12.92 14.04 12.58 18.2C9.86 17.16 8.5 13.52 9.52 9.36Z" fill="#FFF8E8"/>
<path id="Occluding Cup Lip" d="M0 37.96C6.12 33.96 11.22 36.96 17 38.96C22.78 36.96 27.88 33.96 34 37.96L32 52C23.8 42.96 10.2 42.96 2 52L0 37.96Z" fill="url(#paint1_linear_0_60)" stroke="#665B4A" stroke-width="0.75"/>
</g>
<defs>
<radialGradient id="paint0_radial_0_60" cx="0" cy="0" r="1" gradientUnits="userSpaceOnUse" gradientTransform="translate(12.766 12.3296) scale(22.2283 41.4036)">
<stop stop-color="#FFF3D4"/>
<stop offset="0.64" stop-color="#F1D9A4"/>
<stop offset="1" stop-color="#DCAA63"/>
</radialGradient>
<linearGradient id="paint1_linear_0_60" x1="0" y1="35.9883" x2="0" y2="52" gradientUnits="userSpaceOnUse">
<stop stop-color="#AE9D7F"/>
<stop offset="1" stop-color="#81735D"/>
</linearGradient>
<clipPath id="clip0_0_60">
<rect width="34" height="52" fill="white"/>
</clipPath>
</defs>
</svg>
